<svg id="Layer_1" data-name="Layer 1" xmlns="http://www.w3.org/2000/svg" viewBox="0 0 58 58"><defs><style>.cls-1{fill:#fff;}.cls-2{fill:#20458c;}.cls-3{fill:#56d6f1;}.cls-4{fill:#0697f2;}</style></defs><circle class="cls-1" cx="29" cy="29" r="26.24" transform="translate(-12.01 29) rotate(-45)"/><path class="cls-2" d="M51.6,22.09c-1.45,0-2.9,0-4.36,0a1,1,0,0,0-.59.25c-.8.76-1.58,1.55-2.4,2.37h0v0h0v0h0c-.82-.82-1.6-1.61-2.4-2.37a1,1,0,0,0-.59-.25c-1.46,0-2.91,0-4.36,0H36.2V35.93h4.18V26.8l3.84,3.85v0h0v0l3.84-3.85v9.13h4.18V22.09Z"/><path class="cls-2" d="M32.88,28a7.4,7.4,0,0,0-2.14-.37c-2.11-.05-4.22,0-6.33,0a4,4,0,0,1-.69-.05.83.83,0,0,1-.8-.94c0-.53.26-.79.83-.88a4.17,4.17,0,0,1,.61,0H32a.6.6,0,0,0,.53-.29c.64-1,1.3-2,1.94-3a3.08,3.08,0,0,0,.18-.33h-.59c-3,0-5.94,0-8.91,0a16.57,16.57,0,0,0-1.73.06c-2.21.23-4,1.32-4,4.09a3.6,3.6,0,0,0,2.86,4,6.72,6.72,0,0,0,1.48.17c1.55,0,3.09,0,4.63,0,.72,0,1.44,0,2.16,0a.87.87,0,0,1,.94.94.88.88,0,0,1-.92,1l-.62,0H21.59v0L23,35.47a.81.81,0,0,0,.73.47h6.29a8.35,8.35,0,0,0,1.57-.15,3.69,3.69,0,0,0,3.19-2.84A7,7,0,0,0,35,31.11,3.1,3.1,0,0,0,32.88,28Z"/><path class="cls-2" d="M14.15,32.31h-.57a.77.77,0,0,0-.7.44L12,34.58l-.61,1.32H21.81l-1-2c-1.67-3.39-3.33-6.8-5-10.18-1.08-2.18-2.84-2.19-3.93,0C9.9,27.59,7.94,31.51,6,35.42c-.08.15-.14.3-.24.51,1.21,0,2.33,0,3.45,0a.6.6,0,0,0,.37-.24l1.73-3.33c.83-1.63,1.66-3.26,2.52-4.93.82,1.64,1.62,3.23,2.46,4.89H14.15Z"/><path class="cls-3" d="M31.59,8.33a21,21,0,0,0-19.1,12.18h.23a18.89,18.89,0,0,1,33.15-.74,1.45,1.45,0,0,0,1.25.74H50.7A21,21,0,0,0,31.59,8.33Z"/><path class="cls-3" d="M29.49,47.7A18.82,18.82,0,0,1,12.72,37.49h-.23a21.07,21.07,0,0,0,38.21,0H47.12a1.45,1.45,0,0,0-1.25.74A18.84,18.84,0,0,1,29.49,47.7Z"/><path class="cls-4" d="M31.5,6.71a22.39,22.39,0,0,1,20.72,13.8h0a24.74,24.74,0,0,0-46.48,0H9.85a1.45,1.45,0,0,0,1.3-.85A22.4,22.4,0,0,1,31.5,6.71Z"/><path class="cls-4" d="M31.5,51.07A22.38,22.38,0,0,1,11.25,38.33a1.45,1.45,0,0,0-1.3-.84H5.76a24.75,24.75,0,0,0,46.49,0h-.13A22.37,22.37,0,0,1,31.5,51.07Z"/></svg>